<svg width="40" height="40" viewBox="0 0 40 40" fill="none" xmlns="http://www.w3.org/2000/svg">
<path d="M11.265 6.23554C11.6015 6.05578 12.2322 5.87205 12.7406 5.78892L12.7413 5.78882C12.7684 5.78446 12.8078 5.78283 12.8366 5.78171C12.8731 5.78029 12.9216 5.77897 12.9806 5.7777C13.0987 5.77517 13.2629 5.77283 13.4659 5.77065C13.8723 5.76631 14.4372 5.76264 15.1075 5.75965C16.4482 5.75368 18.2122 5.75045 19.9763 5.75004C21.7405 5.74964 23.5051 5.75206 24.8471 5.75743C25.518 5.76011 26.0837 5.76353 26.491 5.76769C26.6946 5.76978 26.8593 5.77205 26.978 5.77453C27.0372 5.77577 27.086 5.77708 27.1228 5.77848C27.1523 5.77961 27.1909 5.78122 27.2175 5.78531M11.265 6.23554C10.7789 6.49095 10.6811 6.55543 10.3387 6.84052L10.3376 6.84145C10.2331 6.9295 10.1043 7.04925 9.99278 7.15968C9.89005 7.26141 9.78371 7.37304 9.7308 7.44674C9.72118 7.45903 9.71006 7.4724 9.70003 7.48397L9.68686 7.49882L9.68447 7.50138C9.65581 7.5295 9.60555 7.59127 9.5665 7.64337L9.56368 7.64714L9.56371 7.64717C9.49108 7.74797 9.43741 7.83523 9.27372 8.10821L9.27234 8.11052L9.27235 8.11053C9.16635 8.29168 8.9803 8.75248 8.9141 8.98789C8.90783 9.01011 8.90161 9.03116 8.89547 9.05193C8.8637 9.15941 8.83425 9.25905 8.81358 9.47104C8.79031 9.70963 8.77604 10.1027 8.76682 10.8699C8.74983 12.2829 8.7499 14.9974 8.75002 20.4312C8.75003 20.9161 8.75004 21.4226 8.75004 21.9518C8.75004 26.6146 8.75262 29.6602 8.75907 31.5531C8.76229 32.4994 8.76648 33.1584 8.77181 33.5875C8.77448 33.8019 8.77744 33.9601 8.78075 34.0686C8.7824 34.1226 8.78419 34.1662 8.7862 34.1988C8.78719 34.215 8.78837 34.2307 8.78985 34.2446C8.78987 34.2448 8.7899 34.2451 8.78993 34.2454C8.79084 34.254 8.79363 34.2804 8.80174 34.3076L8.80229 34.3095L8.8023 34.3095C8.90623 34.6479 9.18627 34.961 9.50193 35.1096L9.50612 35.1116L9.50613 35.1116C9.58253 35.1458 9.6592 35.1807 9.68158 35.1924L9.69088 35.1972L9.69098 35.197C9.73126 35.216 9.77372 35.2243 9.79491 35.2282C9.82287 35.2333 9.85371 35.2372 9.88462 35.2403C9.94676 35.2464 10.0203 35.25 10.0931 35.25C10.197 35.25 10.2863 35.2449 10.378 35.2247C10.4694 35.2046 10.5514 35.172 10.6429 35.1307M11.265 6.23554C11.2652 6.23541 11.2655 6.23528 11.2657 6.23515L11.382 6.45645L11.2641 6.23602C11.2644 6.23586 11.2647 6.2357 11.265 6.23554ZM10.6429 35.1307L10.5399 34.9029M10.6429 35.1307C10.6423 35.131 10.6418 35.1312 10.6412 35.1315L10.5399 34.9029M10.6429 35.1307C10.6753 35.116 10.7376 35.0795 10.804 35.04C10.8805 34.9946 10.9853 34.9312 11.1149 34.8522C11.3743 34.6941 11.735 34.4718 12.1707 34.2018C13.0421 33.6617 14.2146 32.9299 15.4781 32.1366L15.4783 32.1365C16.7413 31.3419 17.8943 30.6186 18.7341 30.0931C19.154 29.8303 19.4955 29.6171 19.7332 29.4692C19.8381 29.404 19.9225 29.3516 19.9846 29.3133C20.0454 29.3492 20.1276 29.3985 20.2295 29.4604C20.4679 29.605 20.8104 29.8156 21.2321 30.0767C22.0754 30.5987 23.2333 31.3211 24.5031 32.1173C25.7716 32.9153 26.9413 33.6477 27.8038 34.1856C28.2351 34.4546 28.5898 34.675 28.8417 34.8307C28.9676 34.9085 29.0682 34.9703 29.1399 35.014C29.2036 35.0528 29.2597 35.0868 29.2828 35.0981C29.3343 35.1234 29.3785 35.1441 29.4131 35.1603C29.4431 35.1743 29.4659 35.185 29.48 35.1924L29.4856 35.1953L29.4856 35.1952C29.528 35.2161 29.5721 35.2251 29.5964 35.2295C29.6264 35.235 29.6587 35.2389 29.6903 35.2417C29.7539 35.2474 29.8273 35.25 29.8983 35.25C29.9694 35.25 30.0428 35.2474 30.1063 35.2417C30.1379 35.2389 30.1703 35.235 30.2003 35.2295C30.2246 35.2251 30.2686 35.2161 30.3111 35.1952L30.3167 35.1925L30.3167 35.1924C30.3391 35.1807 30.4158 35.1458 30.4922 35.1116L30.4964 35.1097L30.4964 35.1096C30.812 34.961 31.0921 34.6479 31.196 34.3095L31.1966 34.3075C31.2047 34.2803 31.2069 34.2544 31.2071 34.2518L31.2071 34.2516C31.208 34.2426 31.2086 34.2332 31.2091 34.2245C31.2101 34.2069 31.211 34.1843 31.2119 34.158C31.2136 34.1049 31.2151 34.0304 31.2167 33.9365C31.2197 33.7485 31.2226 33.4787 31.2252 33.1394C31.2304 32.4606 31.2349 31.501 31.2385 30.3541C31.2457 28.0601 31.2495 25.0156 31.25 21.9668C31.2504 18.9181 31.2474 15.8648 31.2408 13.5534C31.2376 12.3978 31.2334 11.4273 31.2283 10.7355C31.2258 10.3897 31.223 10.1129 31.22 9.91731C31.2185 9.81963 31.217 9.74133 31.2153 9.68445C31.214 9.63945 31.2123 9.58316 31.2069 9.5512L31.2067 9.55009C30.9926 8.32303 30.4171 7.40076 29.3964 6.6263L29.3942 6.62468C29.3241 6.57267 29.169 6.47841 29.0234 6.39444C28.8781 6.31068 28.7145 6.22116 28.623 6.18181M10.5399 34.9029C10.3681 34.9806 10.2856 35 10.0931 35C9.96246 35 9.83185 34.9871 9.79748 34.9709L15.3451 31.9249C12.8188 33.511 10.6568 34.8511 10.5399 34.9029ZM28.623 6.18181C28.1883 5.99086 27.7409 5.86579 27.2175 5.78531M28.623 6.18181C28.6226 6.18164 28.6222 6.18147 28.6218 6.18131L28.5234 6.41113M28.623 6.18181C28.6234 6.18196 28.6237 6.18211 28.624 6.18226L28.5234 6.41113M27.2175 5.78531L27.1795 6.03241M27.2175 5.78531C27.2176 5.78533 27.2177 5.78535 27.2178 5.78536L27.1795 6.03241M27.1795 6.03241C26.8873 5.98709 13.0628 5.99033 12.781 6.03565L28.5234 6.41113M27.1795 6.03241C27.6848 6.1101 28.111 6.22987 28.5234 6.41113M11.1999 20.9419C11.203 10.161 11.1974 9.7981 11.3166 9.4823C11.3261 9.45703 11.3365 9.43206 11.3477 9.40209C11.5333 8.9036 12.0867 8.38245 12.616 8.20765L11.4499 20.9419C11.4499 24.0865 11.4533 26.8481 11.4589 28.8236C11.4617 29.8113 11.465 30.6023 11.4687 31.1462C11.4698 31.302 11.4709 31.4374 11.472 31.5512C11.6782 31.4239 11.9634 31.2469 12.3094 31.0313C13.048 30.5711 14.0625 29.936 15.1743 29.237L15.1744 29.2369C16.2882 28.5376 17.3144 27.895 18.0708 27.4226C18.449 27.1865 18.7598 26.9928 18.9806 26.8559C19.1928 26.7243 19.3366 26.6356 19.3651 26.6209L19.3651 26.6208L19.3695 26.6186C19.5777 26.516 19.7864 26.4597 20.0045 26.4618C20.2221 26.4638 20.4321 26.5238 20.6432 26.6287L20.6432 26.6287C20.6696 26.6419 20.7199 26.6723 20.7711 26.7033C20.8346 26.7418 20.9231 26.796 21.0335 26.8641C21.2545 27.0004 21.5648 27.193 21.9415 27.4278C22.695 27.8973 23.7153 28.536 24.8205 29.2304C25.9237 29.9231 26.9324 30.555 27.6686 31.0149C28.02 31.2344 28.3092 31.4147 28.5169 31.5436C28.5193 31.406 28.5217 31.2369 28.5239 31.0392C28.5305 30.4401 28.536 29.5819 28.5404 28.5498C28.5492 26.4858 28.5534 23.7283 28.5531 20.9613C28.5529 18.1943 28.5483 15.4182 28.5395 13.3169C28.535 12.2662 28.5295 11.3847 28.523 10.7576C28.5197 10.4439 28.5162 10.1945 28.5125 10.0198C28.5106 9.93221 28.5087 9.86456 28.5068 9.81734C28.5058 9.79408 28.5049 9.77731 28.5042 9.76624C28.399 9.3695 28.2575 9.13254 27.974 8.86548C27.6863 8.5946 27.4284 8.45856 26.9896 8.35745C26.9902 8.35761 26.9898 8.35756 26.9881 8.35735C26.9822 8.35663 26.9613 8.35408 26.9147 8.3513C26.8589 8.34797 26.7786 8.34488 26.666 8.3421C26.441 8.33655 26.0953 8.33241 25.5759 8.32938C24.5374 8.32332 22.8111 8.3217 19.9821 8.3217C19.982 8.3217 19.982 8.3217 19.982 8.3217L19.512 8.32191C16.2449 8.32335 14.622 8.32407 13.7695 8.33986C13.3212 8.34817 13.097 8.36055 12.9619 8.37755C12.8532 8.39124 12.808 8.40656 12.7276 8.43384C12.7175 8.43726 12.7068 8.44087 12.6955 8.44469L12.6944 8.44504C12.4718 8.51856 12.2318 8.67014 12.0243 8.86548C11.8164 9.06127 11.6579 9.28528 11.5819 9.48932L11.5818 9.48962C11.5716 9.51699 11.5643 9.53545 11.5584 9.55013C11.5497 9.57226 11.5443 9.58584 11.5375 9.60849C11.5289 9.63711 11.519 9.67995 11.5098 9.76541C11.4906 9.94276 11.4772 10.269 11.4683 10.9606C11.4522 12.2202 11.4516 14.6551 11.4503 19.5187C11.4501 19.9717 11.45 20.4457 11.4499 20.9419H11.1999ZM11.1999 20.9419C11.1999 26.3263 11.2099 30.5885 11.2236 31.7037L11.1999 20.9419ZM28.5033 9.7557C28.5033 9.75603 28.5033 9.75674 28.5035 9.75776L28.5033 9.7557Z" fill="#5D5D5D" stroke="#5D5D5D" stroke-width="0.5"/>
</svg>
