<svg width="40" height="40" viewBox="0 0 40 40" fill="none" xmlns="http://www.w3.org/2000/svg">
<path d="M27.7098 3.87634C25.9419 4.14554 24.4914 5.1942 23.6959 6.77322C23.1495 7.86205 23.0089 9.14777 23.2981 10.4415C23.3062 10.4656 23.0772 10.6223 22.7879 10.7871C21.5464 11.5063 13.8481 15.9018 13.8321 15.9018C13.82 15.9018 13.7035 15.8054 13.5709 15.6888C12.1928 14.4594 10.1517 14.0737 8.35573 14.7004C7.07806 15.1464 5.96511 16.1429 5.37047 17.3683C5.16154 17.7942 4.98475 18.3326 4.90841 18.7705C4.82806 19.2326 4.82806 20.1246 4.90841 20.5866C5.17761 22.1134 6.15797 23.4996 7.52002 24.279C8.416 24.7893 9.54904 25.0384 10.5615 24.942C11.7468 24.8295 12.691 24.4156 13.6914 23.5719L13.8401 23.4473L17.3477 25.4563C23.0531 28.7188 23.3102 28.8674 23.2981 28.9156C23.1374 29.6509 23.1093 30.5308 23.2258 31.1696C23.5513 32.9817 24.8048 34.4924 26.5446 35.1795C27.0669 35.3884 27.541 35.4768 28.212 35.4969C29.8071 35.5491 31.0526 35.0629 32.1495 33.9621C33.1981 32.9134 33.6964 31.704 33.6964 30.2214C33.6964 28.8272 33.2022 27.6098 32.2258 26.5893C31.7798 26.1272 31.2937 25.7696 30.7432 25.5004C29.9638 25.1228 29.3129 24.9741 28.433 24.9741C27.099 24.9701 26.0504 25.3679 24.8812 26.3201L24.7446 26.4326L20.0316 23.7366C17.4361 22.254 15.2986 21.0246 15.2825 21.0085C15.2664 20.9924 15.2825 20.8076 15.3187 20.5987C15.4111 20.1004 15.4111 19.2567 15.3187 18.7585C15.2825 18.5496 15.2664 18.3647 15.2825 18.3487C15.2986 18.3326 17.4361 17.1031 20.0316 15.6205L24.7446 12.9246L24.8731 13.029C25.7571 13.7563 26.5687 14.15 27.5089 14.3188C28.0031 14.4071 28.8548 14.4071 29.337 14.3228C31.2214 13.9893 32.8285 12.6071 33.4312 10.7991C33.624 10.2246 33.6964 9.7625 33.6964 9.13572C33.6964 7.64911 33.1821 6.41563 32.1334 5.375C31.3218 4.57143 30.3816 4.08527 29.3048 3.90848C28.9714 3.85223 27.9789 3.83215 27.7098 3.87634ZM29.2365 6.79331C29.9437 7.04241 30.5062 7.60893 30.7513 8.31206C30.8879 8.7058 30.92 9.26027 30.8276 9.65402C30.6147 10.554 29.9075 11.2732 29.0156 11.5022C28.7142 11.5786 28.1196 11.5786 27.8303 11.5022C26.9825 11.2772 26.2593 10.5621 26.0464 9.73036C25.966 9.41697 25.962 8.80223 26.0423 8.50893C26.2673 7.65714 26.9584 6.96607 27.8303 6.72098C28.1798 6.62456 28.8548 6.66072 29.2365 6.79331ZM10.9231 17.3603C11.3209 17.5049 11.6142 17.6978 11.8914 17.9911C12.3455 18.4692 12.5624 19.0196 12.5624 19.6786C12.5624 20.3777 12.3414 20.904 11.8392 21.4103C11.3249 21.9286 10.7383 22.1576 10.0111 22.1174C9.37225 22.0853 8.89814 21.8884 8.42806 21.4665C8.18297 21.2455 7.88966 20.7795 7.77716 20.4379C7.64056 20.0121 7.63654 19.3451 7.77716 18.9232C8.03832 18.1277 8.67314 17.525 9.48073 17.304C9.89056 17.1955 10.5455 17.2196 10.9231 17.3603ZM29.0156 27.8549C29.9075 28.0799 30.6106 28.7951 30.8196 29.683C31.1852 31.2219 30.008 32.6924 28.4129 32.6964C27.316 32.6964 26.3276 31.929 26.0423 30.8482C25.966 30.5589 25.966 29.9241 26.0423 29.6268C26.2071 28.9879 26.7334 28.3451 27.316 28.0558C27.4888 27.9714 27.7218 27.883 27.8383 27.8509C28.1356 27.7826 28.7303 27.7826 29.0156 27.8549Z" fill="#5D5D5D"/>
</svg>
